<svg id="Layer_1" data-name="Layer 1" xmlns="http://www.w3.org/2000/svg" viewBox="0 0 914.83 510.73">
  <defs>
    <style>
      .cls-1 {
        fill: none;
      }

      .cls-2 {
        fill: #b6b6b6;
      }

      .cls-3 {
        fill: #6f6f6f;
      }

      .cls-4 {
        fill: #b60000;
      }
    </style>
  </defs>
  <rect id="frame" class="cls-1" y="29.77" width="24" height="24"/>
  <g id="unite">
    <path class="cls-2" d="M22,8.4V20.6A1.4,1.4,0,0,1,20.6,22H8.4A1.4,1.4,0,0,1,7,20.6V17H3.4A1.4,1.4,0,0,1,2,15.6V3.4A1.4,1.4,0,0,1,3.4,2H15.6A1.4,1.4,0,0,1,17,3.4V7h3.6A1.4,1.4,0,0,1,22,8.4Z" transform="translate(0 29.77)"/>
  </g>
  <g id="minus_front" data-name="minus front">
    <path class="cls-2" d="M20.6,7H17V3.4A1.4,1.4,0,0,0,15.6,2H3.4A1.4,1.4,0,0,0,2,3.4H2V15.6A1.4,1.4,0,0,0,3.4,17H7v3.6A1.4,1.4,0,0,0,8.4,22H20.6A1.4,1.4,0,0,0,22,20.6V8.4A1.4,1.4,0,0,0,20.6,7ZM21,21H8V8H21Z" transform="translate(0 29.77)"/>
  </g>
  <g id="intersect">
    <path class="cls-2" d="M20.6,7H17V3.4A1.4,1.4,0,0,0,15.6,2H3.4A1.4,1.4,0,0,0,2,3.4H2V15.6A1.4,1.4,0,0,0,3.4,17H7v3.6A1.4,1.4,0,0,0,8.4,22H20.6A1.4,1.4,0,0,0,22,20.6V8.4A1.4,1.4,0,0,0,20.6,7ZM7,8.4V16H3V3H16V7H8.4A1.4,1.4,0,0,0,7,8.4ZM21,21H8V17h7.6A1.4,1.4,0,0,0,17,15.6V8h4Z" transform="translate(0 29.77)"/>
  </g>
  <g id="exclude">
    <path class="cls-2" d="M15.6,2H3.4A1.4,1.4,0,0,0,2,3.4H2V15.6A1.4,1.4,0,0,0,3.4,17H15.6A1.4,1.4,0,0,0,17,15.6V3.4A1.4,1.4,0,0,0,15.6,2ZM16,16H8V8h8Z" transform="translate(0 29.77)"/>
    <path class="cls-2" d="M22,8.4V20.6A1.4,1.4,0,0,1,20.6,22H8.4A1.4,1.4,0,0,1,7,20.6V17h8.6A1.4,1.4,0,0,0,17,15.6V7h3.6A1.4,1.4,0,0,1,22,8.4Z" transform="translate(0 29.77)"/>
  </g>
  <g id="divide">
    <path class="cls-2" d="M17,3.4V7H8.4A1.4,1.4,0,0,0,7,8.4V17H3.4A1.4,1.4,0,0,1,2,15.6V3.4A1.4,1.4,0,0,1,3.4,2H15.6A1.4,1.4,0,0,1,17,3.4Z" transform="translate(0 29.77)"/>
    <rect class="cls-2" x="8" y="37.77" width="8" height="8"/>
    <path class="cls-2" d="M22,8.4V20.6A1.4,1.4,0,0,1,20.6,22H8.4A1.4,1.4,0,0,1,7,20.6V17h8.6A1.4,1.4,0,0,0,17,15.6V7h3.6A1.4,1.4,0,0,1,22,8.4Z" transform="translate(0 29.77)"/>
    <rect class="cls-2" x="8" y="37.77" width="8" height="8"/>
  </g>
  <g id="trim">
    <path class="cls-2" d="M17,3.4V7H8.4A1.4,1.4,0,0,0,7,8.4V17H3.4A1.4,1.4,0,0,1,2,15.6V3.4A1.4,1.4,0,0,1,3.4,2H15.6A1.4,1.4,0,0,1,17,3.4Z" transform="translate(0 29.77)"/>
    <path class="cls-2" d="M22,8.4V20.6A1.4,1.4,0,0,1,20.6,22H8.4A1.4,1.4,0,0,1,7,20.6V17H8V8h9V7h3.6A1.4,1.4,0,0,1,22,8.4Z" transform="translate(0 29.77)"/>
  </g>
  <g id="merge">
    <path class="cls-2" d="M22,8.4V20.6A1.4,1.4,0,0,1,20.6,22H8.4A1.4,1.4,0,0,1,7,20.6V17H8V8H7.07A1.09,1.09,0,0,0,7,8.4V17H3.4A1.4,1.4,0,0,1,2,15.6V3.4A1.4,1.4,0,0,1,3.4,2H15.6A1.4,1.4,0,0,1,17,3.4V7h3.6A1.4,1.4,0,0,1,22,8.4Z" transform="translate(0 29.77)"/>
  </g>
  <g id="crop">
    <path class="cls-3" d="M15.6,2H3.4A1.4,1.4,0,0,0,2,3.4H2V15.6A1.4,1.4,0,0,0,3.4,17H7V16H3V3H16V7h1V3.4A1.4,1.4,0,0,0,15.6,2Z" transform="translate(0 29.77)"/>
    <rect x="8" y="37.77" width="8" height="8"/>
    <path class="cls-2" d="M20.6,7H17V8h4V21H8V17H7v3.6A1.4,1.4,0,0,0,8.4,22H20.6A1.4,1.4,0,0,0,22,20.6V8.4A1.4,1.4,0,0,0,20.6,7Z" transform="translate(0 29.77)"/>
    <rect class="cls-2" x="8" y="37.77" width="8" height="8"/>
  </g>
  <g id="outline">
    <path class="cls-2" d="M16,16H8v1h7.6A1.4,1.4,0,0,0,17,15.6V8H16ZM15.6,2H3.4A1.4,1.4,0,0,0,2,3.4H2V15.6A1.4,1.4,0,0,0,3.4,17H7V16H3V3H16V7h1V3.4A1.4,1.4,0,0,0,15.6,2Z" transform="translate(0 29.77)"/>
    <path class="cls-2" d="M16,7V8H8v8H7V8.4A1.4,1.4,0,0,1,8.4,7Z" transform="translate(0 29.77)"/>
    <path class="cls-2" d="M20.6,7H17V8h4V21H8V17H7v3.6A1.4,1.4,0,0,0,8.4,22H20.6A1.4,1.4,0,0,0,22,20.6V8.4A1.4,1.4,0,0,0,20.6,7ZM8,8h8V7H8.4A1.4,1.4,0,0,0,7,8.4V16H8Z" transform="translate(0 29.77)"/>
    <path class="cls-2" d="M17,8v7.6A1.4,1.4,0,0,1,15.6,17H8V16h8V8Z" transform="translate(0 29.77)"/>
  </g>
  <g id="minus_back" data-name="minus back">
    <path class="cls-2" d="M20.6,7H17V3.4A1.4,1.4,0,0,0,15.6,2H3.4A1.4,1.4,0,0,0,2,3.4H2V15.6A1.4,1.4,0,0,0,3.4,17H7v3.6A1.4,1.4,0,0,0,8.4,22H20.6A1.4,1.4,0,0,0,22,20.6V8.4A1.4,1.4,0,0,0,20.6,7ZM16,16H3V3H16Z" transform="translate(0 29.77)"/>
  </g>
  <polygon class="cls-2" points="199.79 20.89 199.79 0 156.71 0 156.71 43.08 177.6 43.08 177.6 63.96 220.67 63.96 220.67 20.89 199.79 20.89"/>
  <rect class="cls-4" x="243.48" width="43.08" height="43.08"/>
  <rect class="cls-2" x="264.37" y="20.88" width="43.08" height="43.08"/>
  <rect class="cls-4" x="330.25" width="43.08" height="43.08"/>
  <rect class="cls-2" x="351.13" y="20.88" width="43.08" height="43.08"/>
  <rect class="cls-4" x="417.02" width="43.08" height="43.08"/>
  <rect class="cls-2" x="437.9" y="20.88" width="43.08" height="43.08"/>
  <rect class="cls-4" x="503.79" width="43.08" height="43.08"/>
  <rect class="cls-2" x="524.67" y="20.88" width="43.08" height="43.08"/>
  <rect class="cls-4" x="590.56" width="43.08" height="43.08"/>
  <rect class="cls-2" x="611.44" y="20.88" width="43.08" height="43.08"/>
  <rect class="cls-4" x="677.33" width="43.08" height="43.08"/>
  <rect class="cls-2" x="698.21" y="20.88" width="43.08" height="43.08"/>
  <rect class="cls-4" x="764.1" width="43.08" height="43.08"/>
  <rect class="cls-2" x="784.98" y="20.88" width="43.08" height="43.08"/>
  <rect class="cls-4" x="850.87" width="43.08" height="43.08"/>
  <rect class="cls-2" x="871.75" y="20.88" width="43.08" height="43.08"/>
  <rect class="cls-4" x="156.71" y="111.69" width="43.08" height="43.08"/>
  <rect class="cls-2" x="177.6" y="132.58" width="43.08" height="43.08"/>
  <rect class="cls-4" x="243.48" y="111.69" width="43.08" height="43.08"/>
  <rect class="cls-2" x="264.37" y="132.58" width="43.08" height="43.08"/>
  <rect class="cls-4" x="330.25" y="111.69" width="43.08" height="43.08"/>
  <rect class="cls-2" x="351.13" y="132.58" width="43.08" height="43.08"/>
  <rect class="cls-4" x="417.02" y="111.69" width="43.08" height="43.08"/>
  <rect class="cls-2" x="437.9" y="132.58" width="43.08" height="43.08"/>
  <rect class="cls-4" x="503.79" y="111.69" width="43.08" height="43.08"/>
  <rect class="cls-2" x="524.67" y="132.58" width="43.08" height="43.08"/>
  <rect class="cls-4" x="590.56" y="111.69" width="43.08" height="43.08"/>
  <rect class="cls-2" x="611.44" y="132.58" width="43.08" height="43.08"/>
  <rect class="cls-4" x="677.33" y="111.69" width="43.08" height="43.08"/>
  <rect class="cls-2" x="698.21" y="132.58" width="43.08" height="43.08"/>
  <rect class="cls-4" x="764.1" y="111.69" width="43.08" height="43.08"/>
  <rect class="cls-2" x="784.98" y="132.58" width="43.08" height="43.08"/>
  <rect class="cls-4" x="850.87" y="111.69" width="43.08" height="43.08"/>
  <rect class="cls-2" x="871.75" y="132.58" width="43.08" height="43.08"/>
  <rect class="cls-4" x="156.71" y="223.38" width="43.08" height="43.08"/>
  <rect class="cls-2" x="177.6" y="244.27" width="43.08" height="43.08"/>
  <rect class="cls-4" x="243.48" y="223.38" width="43.08" height="43.08"/>
  <rect class="cls-2" x="264.37" y="244.27" width="43.08" height="43.08"/>
  <rect class="cls-4" x="330.25" y="223.38" width="43.08" height="43.08"/>
  <rect class="cls-2" x="351.13" y="244.27" width="43.08" height="43.08"/>
  <rect class="cls-4" x="417.02" y="223.38" width="43.08" height="43.08"/>
  <rect class="cls-2" x="437.9" y="244.27" width="43.08" height="43.08"/>
  <rect class="cls-4" x="503.79" y="223.38" width="43.08" height="43.08"/>
  <rect class="cls-2" x="524.67" y="244.27" width="43.08" height="43.08"/>
  <rect class="cls-4" x="590.56" y="223.38" width="43.08" height="43.08"/>
  <rect class="cls-2" x="611.44" y="244.27" width="43.08" height="43.08"/>
  <rect class="cls-4" x="677.33" y="223.38" width="43.08" height="43.08"/>
  <rect class="cls-2" x="698.21" y="244.27" width="43.08" height="43.08"/>
  <rect class="cls-4" x="764.1" y="223.38" width="43.08" height="43.08"/>
  <rect class="cls-2" x="784.98" y="244.27" width="43.08" height="43.08"/>
  <rect class="cls-4" x="850.87" y="223.38" width="43.08" height="43.08"/>
  <rect class="cls-2" x="871.75" y="244.27" width="43.08" height="43.08"/>
  <rect class="cls-4" x="156.71" y="335.08" width="43.08" height="43.08"/>
  <rect class="cls-2" x="177.6" y="355.96" width="43.08" height="43.08"/>
  <rect class="cls-4" x="243.48" y="335.08" width="43.08" height="43.08"/>
  <rect class="cls-2" x="264.37" y="355.96" width="43.08" height="43.08"/>
  <rect class="cls-4" x="330.25" y="335.08" width="43.08" height="43.08"/>
  <rect class="cls-2" x="351.13" y="355.96" width="43.08" height="43.08"/>
  <rect class="cls-4" x="417.02" y="335.08" width="43.08" height="43.08"/>
  <rect class="cls-2" x="437.9" y="355.96" width="43.08" height="43.08"/>
  <rect class="cls-4" x="503.79" y="335.08" width="43.08" height="43.08"/>
  <rect class="cls-2" x="524.67" y="355.96" width="43.08" height="43.08"/>
  <rect class="cls-4" x="590.56" y="335.08" width="43.08" height="43.08"/>
  <rect class="cls-2" x="611.44" y="355.96" width="43.08" height="43.08"/>
  <rect class="cls-4" x="677.33" y="335.08" width="43.08" height="43.08"/>
  <rect class="cls-2" x="698.21" y="355.96" width="43.08" height="43.08"/>
  <rect class="cls-4" x="764.1" y="335.08" width="43.08" height="43.08"/>
  <rect class="cls-2" x="784.98" y="355.96" width="43.08" height="43.08"/>
  <rect class="cls-4" x="850.87" y="335.08" width="43.08" height="43.08"/>
  <rect class="cls-2" x="871.75" y="355.96" width="43.08" height="43.08"/>
  <rect class="cls-4" x="156.71" y="446.77" width="43.08" height="43.08"/>
  <rect class="cls-2" x="177.6" y="467.65" width="43.08" height="43.08"/>
  <rect class="cls-4" x="243.48" y="446.77" width="43.08" height="43.08"/>
  <rect class="cls-2" x="264.37" y="467.65" width="43.08" height="43.08"/>
  <rect class="cls-4" x="330.25" y="446.77" width="43.08" height="43.08"/>
  <rect class="cls-2" x="351.13" y="467.65" width="43.08" height="43.08"/>
  <rect class="cls-4" x="417.02" y="446.77" width="43.08" height="43.08"/>
  <rect class="cls-2" x="437.9" y="467.65" width="43.08" height="43.08"/>
  <rect class="cls-4" x="503.79" y="446.77" width="43.08" height="43.08"/>
  <rect class="cls-2" x="524.67" y="467.65" width="43.08" height="43.08"/>
  <rect class="cls-4" x="590.56" y="446.77" width="43.08" height="43.08"/>
  <rect class="cls-2" x="611.44" y="467.65" width="43.08" height="43.08"/>
  <rect class="cls-4" x="677.33" y="446.77" width="43.08" height="43.08"/>
  <rect class="cls-2" x="698.21" y="467.65" width="43.08" height="43.08"/>
  <rect class="cls-4" x="764.1" y="446.77" width="43.08" height="43.08"/>
  <rect class="cls-2" x="784.98" y="467.65" width="43.08" height="43.08"/>
  <rect class="cls-4" x="850.87" y="446.77" width="43.08" height="43.08"/>
  <rect class="cls-2" x="871.75" y="467.65" width="43.08" height="43.08"/>
</svg>
