<svg id="Layer_1" data-name="Layer 1" xmlns="http://www.w3.org/2000/svg" viewBox="0 0 24 24"><defs><style>.cls-1{fill:none;}.cls-2{fill:#b6b6b6;}.cls-3{fill:#6f6f6f;}</style></defs><rect id="frame" class="cls-1" width="24" height="24"/><g id="unite"><path class="cls-2" d="M22,8.4V20.6A1.4,1.4,0,0,1,20.6,22H8.4A1.4,1.4,0,0,1,7,20.6V17H3.4A1.4,1.4,0,0,1,2,15.6V3.4A1.4,1.4,0,0,1,3.4,2H15.6A1.4,1.4,0,0,1,17,3.4V7h3.6A1.4,1.4,0,0,1,22,8.4Z"/></g><g id="minus_front" data-name="minus front"><path class="cls-2" d="M20.6,7H17V3.4A1.4,1.4,0,0,0,15.6,2H3.4A1.4,1.4,0,0,0,2,3.4V15.6A1.4,1.4,0,0,0,3.4,17H7v3.6A1.4,1.4,0,0,0,8.4,22H20.6A1.4,1.4,0,0,0,22,20.6V8.4A1.4,1.4,0,0,0,20.6,7ZM21,21H8V8H21Z"/></g><g id="intersect"><path class="cls-2" d="M20.6,7H17V3.4A1.4,1.4,0,0,0,15.6,2H3.4A1.4,1.4,0,0,0,2,3.4V15.6A1.4,1.4,0,0,0,3.4,17H7v3.6A1.4,1.4,0,0,0,8.4,22H20.6A1.4,1.4,0,0,0,22,20.6V8.4A1.4,1.4,0,0,0,20.6,7ZM7,8.4V16H3V3H16V7H8.4A1.4,1.4,0,0,0,7,8.4ZM21,21H8V17h7.6A1.4,1.4,0,0,0,17,15.6V8h4Z"/></g><g id="exclude"><path class="cls-2" d="M15.6,2H3.4A1.4,1.4,0,0,0,2,3.4V15.6A1.4,1.4,0,0,0,3.4,17H15.6A1.4,1.4,0,0,0,17,15.6V3.4A1.4,1.4,0,0,0,15.6,2ZM16,16H8V8h8Z"/><path class="cls-2" d="M22,8.4V20.6A1.4,1.4,0,0,1,20.6,22H8.4A1.4,1.4,0,0,1,7,20.6V17h8.6A1.4,1.4,0,0,0,17,15.6V7h3.6A1.4,1.4,0,0,1,22,8.4Z"/></g><g id="divide"><path class="cls-2" d="M17,3.4V7H8.4A1.4,1.4,0,0,0,7,8.4V17H3.4A1.4,1.4,0,0,1,2,15.6V3.4A1.4,1.4,0,0,1,3.4,2H15.6A1.4,1.4,0,0,1,17,3.4Z"/><rect class="cls-2" x="8" y="8" width="8" height="8"/><path class="cls-2" d="M22,8.4V20.6A1.4,1.4,0,0,1,20.6,22H8.4A1.4,1.4,0,0,1,7,20.6V17h8.6A1.4,1.4,0,0,0,17,15.6V7h3.6A1.4,1.4,0,0,1,22,8.4Z"/><rect class="cls-2" x="8" y="8" width="8" height="8"/></g><g id="trim"><path class="cls-2" d="M17,3.4V7H8.4A1.4,1.4,0,0,0,7,8.4V17H3.4A1.4,1.4,0,0,1,2,15.6V3.4A1.4,1.4,0,0,1,3.4,2H15.6A1.4,1.4,0,0,1,17,3.4Z"/><path class="cls-2" d="M22,8.4V20.6A1.4,1.4,0,0,1,20.6,22H8.4A1.4,1.4,0,0,1,7,20.6V17H8V8h9V7h3.6A1.4,1.4,0,0,1,22,8.4Z"/></g><g id="merge"><path class="cls-2" d="M22,8.4V20.6A1.4,1.4,0,0,1,20.6,22H8.4A1.4,1.4,0,0,1,7,20.6V17H8V8H7.07A1.09,1.09,0,0,0,7,8.4V17H3.4A1.4,1.4,0,0,1,2,15.6V3.4A1.4,1.4,0,0,1,3.4,2H15.6A1.4,1.4,0,0,1,17,3.4V7h3.6A1.4,1.4,0,0,1,22,8.4Z"/></g><g id="crop"><path class="cls-3" d="M15.6,2H3.4A1.4,1.4,0,0,0,2,3.4V15.6A1.4,1.4,0,0,0,3.4,17H7V16H3V3H16V7h1V3.4A1.4,1.4,0,0,0,15.6,2Z"/><rect x="8" y="8" width="8" height="8"/><path class="cls-2" d="M20.6,7H17V8h4V21H8V17H7v3.6A1.4,1.4,0,0,0,8.4,22H20.6A1.4,1.4,0,0,0,22,20.6V8.4A1.4,1.4,0,0,0,20.6,7Z"/><rect class="cls-2" x="8" y="8" width="8" height="8"/></g><g id="outline"><path class="cls-2" d="M16,16H8v1h7.6A1.4,1.4,0,0,0,17,15.6V8H16ZM15.6,2H3.4A1.4,1.4,0,0,0,2,3.4V15.6A1.4,1.4,0,0,0,3.4,17H7V16H3V3H16V7h1V3.4A1.4,1.4,0,0,0,15.6,2Z"/><path class="cls-2" d="M16,7V8H8v8H7V8.4A1.4,1.4,0,0,1,8.4,7Z"/><path class="cls-2" d="M20.6,7H17V8h4V21H8V17H7v3.6A1.4,1.4,0,0,0,8.4,22H20.6A1.4,1.4,0,0,0,22,20.6V8.4A1.4,1.4,0,0,0,20.6,7ZM8,8h8V7H8.4A1.4,1.4,0,0,0,7,8.4V16H8Z"/><path class="cls-2" d="M17,8v7.6A1.4,1.4,0,0,1,15.6,17H8V16h8V8Z"/></g><g id="minus_back" data-name="minus back"><path class="cls-2" d="M20.6,7H17V3.4A1.4,1.4,0,0,0,15.6,2H3.4A1.4,1.4,0,0,0,2,3.4V15.6A1.4,1.4,0,0,0,3.4,17H7v3.6A1.4,1.4,0,0,0,8.4,22H20.6A1.4,1.4,0,0,0,22,20.6V8.4A1.4,1.4,0,0,0,20.6,7ZM16,16H3V3H16Z"/></g></svg>