<svg id="Layer_1" data-name="Layer 1" xmlns="http://www.w3.org/2000/svg" viewBox="0 0 20 20">
  <defs>
    <style>
      .cls-1 {
        fill: #b6b6b6;
      }

      .cls-2 {
        fill: #b60000;
      }

      .cls-3 {
        fill: #0000b6;
      }

      .cls-4 {
        fill: #5100af;
      }
    </style>
  </defs>
  <path id="clipping_mask" data-name="clipping mask" class="cls-1" d="M16,6.29V2H2V16H6.27c.06.21.12.42.19.63l1-.33c0-.1-.07-.2-.1-.3H16V7.32l.3.1.33-1Q16.34,6.37,16,6.29Zm-1-.2A8.26,8.26,0,0,0,14,6a8,8,0,0,0-8,8,8.14,8.14,0,0,0,.06,1H3V3H15ZM14.94,22l-.11-1a7,7,0,0,0,1.82-.46l.37.93A8.13,8.13,0,0,1,14.94,22Zm-2.14,0a7.65,7.65,0,0,1-2.06-.61l.41-.91a6.66,6.66,0,0,0,1.8.53Zm6.09-1.55-.61-.79a7,7,0,0,0,1.32-1.34l.8.61A7.77,7.77,0,0,1,18.89,20.38Zm-10-.19a8.09,8.09,0,0,1-1.46-1.58L8.28,18a7,7,0,0,0,1.28,1.39ZM21.46,17l-.93-.37A7.14,7.14,0,0,0,21,14.8l1,.1A8.31,8.31,0,0,1,21.46,17Zm-.52-4.07a7,7,0,0,0-.55-1.8l.91-.42a7.89,7.89,0,0,1,.62,2.06ZM19.39,9.53A6.93,6.93,0,0,0,18,8.27l.57-.83a8.06,8.06,0,0,1,1.58,1.45Z" transform="translate(-2 -2)"/>
  <g id="compound">
    <path class="cls-1" d="M16,6.39V2.77A.76.76,0,0,0,15.23,2H2.77A.76.76,0,0,0,2,2.77V15.23a.76.76,0,0,0,.77.77H6.39A7.92,7.92,0,1,0,16,6.39ZM14.08,21a6.92,6.92,0,0,1-6.65-5,5.55,5.55,0,0,1-.21-1H3V3H15V7.22a5.55,5.55,0,0,1,1,.21A6.92,6.92,0,0,1,14.08,21Z" transform="translate(-2 -2)"/>
  </g>
  <g id="hard_mix" data-name="hard mix">
    <path class="cls-2" d="M17,3.4V7H8.4A1.4,1.4,0,0,0,7,8.4V17H3.4A1.4,1.4,0,0,1,2,15.6V3.4A1.4,1.4,0,0,1,3.4,2H15.6A1.4,1.4,0,0,1,17,3.4Z" transform="translate(-2 -2)"/>
    <rect class="cls-1" x="6" y="6" width="8" height="8"/>
    <path class="cls-3" d="M22,8.4V20.6A1.4,1.4,0,0,1,20.6,22H8.4A1.4,1.4,0,0,1,7,20.6V17h8.6A1.4,1.4,0,0,0,17,15.6V7h3.6A1.4,1.4,0,0,1,22,8.4Z" transform="translate(-2 -2)"/>
    <rect x="6" y="6" width="8" height="8"/>
  </g>
  <g id="soft_mix" data-name="soft mix">
    <path class="cls-2" d="M17,3.4V7H8.4A1.4,1.4,0,0,0,7,8.4V17H3.4A1.4,1.4,0,0,1,2,15.6V3.4A1.4,1.4,0,0,1,3.4,2H15.6A1.4,1.4,0,0,1,17,3.4Z" transform="translate(-2 -2)"/>
    <rect class="cls-1" x="6" y="6" width="8" height="8"/>
    <path class="cls-3" d="M22,8.4V20.6A1.4,1.4,0,0,1,20.6,22H8.4A1.4,1.4,0,0,1,7,20.6V17h8.6A1.4,1.4,0,0,0,17,15.6V7h3.6A1.4,1.4,0,0,1,22,8.4Z" transform="translate(-2 -2)"/>
    <rect class="cls-4" x="6" y="6" width="8" height="8"/>
  </g>
</svg>
